#!OML:ASF I:\Actors\actors\Patient Classification 1\Patient 1\Session 1\Subject1.ASF
:FULLY-SPECIFIED
:DEGREES
517
root -0.498421 17.54 7.51629 5.33999 -0.884348 -7.97382
lowerback 2.65379 0.174617 3.53699
upperback -8.04817 0.597301 1.01991
thorax -10.0047 0.0606914 -0.958257
lowerneck -12.5145 -0.502849 3.59376
upperneck 36.0187 -1.52784 -0.785468
head 14.4396 -0.287026 -1.20219
rclavicle 1.2921e-014 -2.70347e-014
rhumerus -0.170868 7.27264 -45.0047
rradius 116.601
rwrist 4.77262
rhand -21.4661 -56.9796
rfingers 7.12502
rthumb 4.92426 -1166.9
lclavicle 1.2921e-014 -2.70347e-014
lhumerus -45.4848 -29.0762 102.235
lradius 102.282
lwrist 16.963
lhand -26.0821 -8.98697
lfingers 7.12502
lthumb 0.466469 20.9923
rfemur 0.203473 22.8943 27.0862
rtibia 2.60131
rfoot -11.6097 -22.0447
rtoes 0.615718
lfemur 10.327 -41.7989 -17.7281
ltibia -4.63545
lfoot -19.8257 51.0754
ltoes 11.1146
518
root -0.497851 17.5414 7.51894 5.34011 -0.881487 -7.92488
lowerback 2.59279 0.145444 3.59616
upperback -8.00516 0.558626 1.02564
thorax -9.92175 0.0391142 -0.9808
lowerneck -12.4746 -0.439312 3.57959
upperneck 35.9006 -1.40839 -0.827692
head 14.3782 -0.245353 -1.19649
rclavicle -6.06293e-015 -2.06736e-014
rhumerus 0.321073 9.6146 -44.6058
rradius 116.361
rwrist 9.93698
rhand -23.2922 -54.9413
rfingers 7.12502
rthumb 3.16095 -1164.9
lclavicle -6.06293e-015 -2.06736e-014
lhumerus -45.512 -28.9069 102.197
lradius 102.659
lwrist 16.9185
lhand -26.1387 -8.7534
lfingers 7.12502
lthumb 0.411745 21.2259
rfemur 0.217701 22.9908 27.0353
rtibia 2.58166
rfoot -11.5882 -22.1323
rtoes 0.622592
lfemur 10.4029 -41.946 -17.859
ltibia -4.64752
lfoot -19.9092 51.2112
ltoes 11.0659
519
root -0.497103 17.542 7.52001 5.36313 -0.900353 -7.9289
lowerback 2.53212 0.121837 3.72886
upperback -7.96586 0.532621 1.02623
thorax -9.84295 0.0176836 -1.05132
lowerneck -12.565 -0.367114 3.65736
upperneck 35.9014 -1.27828 -0.958973
head 14.4008 -0.196288 -1.2447
rclavicle -5.06901e-015 5.56597e-015
rhumerus 0.783442 12.0642 -44.2681
rradius 116.17
rwrist 14.8398
rhand -25.0534 -52.794
rfingers 7.12502
rthumb 1.45996 -1162.77
lclavicle -5.06901e-015 5.56597e-015
lhumerus -45.5286 -28.7594 102.111
lradius 103.061
lwrist 16.8956
lhand -26.1306 -8.40709
lfingers 7.12502
lthumb 0.419574 21.5722
rfemur 0.165681 23.03 27.0205
rtibia 2.61656
rfoot -11.6092 -22.1248
rtoes 0.718077
lfemur 10.3224 -41.8711 -17.8028
ltibia -4.60336
lfoot -19.7692 51.1558
ltoes 10.8668
520
root -0.497458 17.5414 7.52078 5.40191 -0.946105 -7.93199
lowerback 2.43783 0.115378 3.84945
upperback -7.93763 0.525512 1.00672
thorax -9.75543 0.00564103 -1.13838
lowerneck -12.5726 -0.318834 3.73689
upperneck 35.8685 -1.20062 -1.03547
head 14.3882 -0.163065 -1.2777
rclavicle 6.06293e-015 -1.74931e-014
rhumerus 1.15785 14.6148 -44.0267
rradius 116.009
rwrist 19.7895
rhand -26.7651 -50.7144
rfingers 7.12502
rthumb -0.193189 -1160.69
lclavicle 6.06293e-015 -1.74931e-014
lhumerus -45.5715 -28.618 101.999
lradius 103.506
lwrist 16.9319
lhand -26.073 -7.91149
lfingers 7.12502
lthumb 0.475196 22.0677
rfemur 0.0776905 23.0317 26.9966
rtibia 2.68972
rfoot -11.6362 -22.0496
rtoes 0.865703
lfemur 10.2057 -41.7123 -17.7017
ltibia -4.57581
lfoot -19.5714 51.056
ltoes 10.714
521
root -0.496984 17.5404 7.5221 5.39587 -1.04066 -7.94826
lowerback 2.37813 0.147899 3.99832
upperback -7.8867 0.57314 0.977485
thorax -9.66058 0.0182796 -1.25764
lowerneck -12.5185 -0.30178 3.67018
upperneck 35.7522 -1.18528 -0.942017
head 14.324 -0.154747 -1.22317
rclavicle 7.55382e-015 1.03368e-014
rhumerus 1.53491 17.0746 -43.7867
rradius 115.827
rwrist 24.716
rhand -28.1876 -48.5551
rfingers 7.12502
rthumb -1.56711 -1158.53
lclavicle 7.55382e-015 1.03368e-014
lhumerus -45.6138 -28.5006 101.911
lradius 103.99
lwrist 17.0419
lhand -26.0758 -7.40119
lfingers 7.12502
lthumb 0.472554 22.578
rfemur 0.0462945 22.996 27.0016
rtibia 2.75877
rfoot -11.6296 -21.9125
rtoes 1.04195
lfemur 10.2271 -41.5667 -17.6797
ltibia -4.59819
lfoot -19.6469 51.0059
ltoes 10.8752
522
root -0.49677 17.5392 7.52375 5.36805 -1.1785 -7.98029
lowerback 2.34053 0.188017 4.12064
upperback -7.82117 0.631635 0.974689
thorax -9.56214 0.0399337 -1.3351
lowerneck -12.4602 -0.262054 3.62095
upperneck 35.6128 -1.12723 -0.883885
head 14.2492 -0.130649 -1.17941
rclavicle 1.25234e-014 -4.37326e-014
rhumerus 1.69476 19.5087 -43.7248
rradius 115.604
rwrist 29.5387
rhand -28.6604 -45.0996
rfingers 7.12502
rthumb -2.02372 -1155.07
lclavicle 1.25234e-014 -4.37326e-014
lhumerus -45.6112 -28.3437 101.829
lradius 104.467
lwrist 17.1973
lhand -26.0275 -6.84703
lfingers 7.12502
lthumb 0.519231 23.1321
rfemur 0.0484945 22.9859 27.0393
rtibia 2.81799
rfoot -11.6051 -21.7788
rtoes 1.01625
lfemur 10.3412 -41.489 -17.71
ltibia -4.63567
lfoot -20.0301 51.0287
ltoes 11.3307
523
root -0.497046 17.5379 7.52456 5.33407 -1.32187 -7.97002
lowerback 2.31817 0.200727 4.144
upperback -7.78122 0.649046 0.991929
thorax -9.50355 0.0489483 -1.33163
lowerneck -12.3725 -0.198047 3.66558
upperneck 35.514 -0.998911 -0.992157
head 14.186 -0.0857195 -1.20976
rclavicle -7.45443e-015 3.02153e-014
rhumerus 1.27526 21.9886 -44.0353
rradius 114.961
rwrist 35.1473
rhand -30.5513 -43.3538
rfingers 7.12502
rthumb -3.84988 -1153.3
lclavicle -7.45443e-015 3.02153e-014
lhumerus -45.6725 -28.0893 101.746
lradius 104.937
lwrist 17.2212
lhand -25.87 -6.46843
lfingers 7.12502
lthumb 0.671347 23.5103
rfemur 0.0554863 22.9662 27.0285
rtibia 2.85421
rfoot -11.5406 -21.641
rtoes 0.645692
lfemur 10.4425 -41.4273 -17.7936
ltibia -4.63005
lfoot -20.3892 51.0621
ltoes 11.688
524
root -0.497057 17.5369 7.52672 5.28449 -1.50844 -7.89711
lowerback 2.27472 0.248349 4.09799
upperback -7.73817 0.704583 0.976178
thorax -9.42629 0.0807545 -1.32829
lowerneck -12.3552 -0.162801 3.76043
upperneck 35.504 -0.912753 -1.15483
head 14.1779 -0.0579624 -1.27927
rclavicle -1.22253e-014 3.73715e-014
rhumerus 1.61682 24.8314 -44.0608
rradius 114.557
rwrist 38.8955
rhand -32.5686 -42.0768
rfingers 7.12502
rthumb -5.79774 -1151.98
lclavicle -1.22253e-014 3.73715e-014
lhumerus -45.8246 -27.9065 101.704
lradius 105.41
lwrist 17.1123
lhand -25.5743 -6.2113
lfingers 7.12502
lthumb 0.956899 23.7663
rfemur 0.0929054 22.9414 26.9453
rtibia 2.86131
rfoot -11.4632 -21.4638
rtoes 0.383343
lfemur 10.5922 -41.3492 -17.9959
ltibia -4.6246
lfoot -20.532 51.1572
ltoes 11.7901
525
root -0.497253 17.5361 7.53066 5.24283 -1.7295 -7.82652
lowerback 2.16534 0.315146 4.06037
upperback -7.66637 0.781216 0.949707
thorax -9.27665 0.123491 -1.34252
lowerneck -12.4075 -0.130095 3.87903
upperneck 35.535 -0.854951 -1.27951
head 14.2042 -0.0332832 -1.34297
rclavicle 1.50082e-014 -2.06736e-014
rhumerus 2.06547 27.8733 -44.1336
rradius 114.067
rwrist 41.604
rhand -34.2729 -40.9975
rfingers 7.12502
rthumb -7.44298 -1150.85
lclavicle 1.50082e-014 -2.06736e-014
lhumerus -45.9694 -27.7816 101.657
lradius 105.89
lwrist 17.139
lhand -25.246 -5.84342
lfingers 7.12502
lthumb 1.27401 24.1325
rfemur 0.128319 22.9367 26.86
rtibia 2.88124
rfoot -11.4616 -21.2685
rtoes 0.473305
lfemur 10.7833 -41.3095 -18.2311
ltibia -4.64312
lfoot -20.6509 51.328
ltoes 11.8653
526
root -0.497675 17.5357 7.5336 5.19838 -1.94934 -7.80047
lowerback 2.06642 0.336369 4.05261
upperback -7.60039 0.803829 0.981661
thorax -9.14381 0.139702 -1.30583
lowerneck -12.3641 -0.0570897 3.94615
upperneck 35.4988 -0.716871 -1.40589
head 14.1811 0.0175032 -1.38435
rclavicle -6.55989e-015 2.38542e-015
rhumerus 2.64585 31.0539 -44.3594
rradius 113.508
rwrist 43.5995
rhand -35.107 -39.807
rfingers 7.12502
rthumb -8.24809 -1149.63
lclavicle -6.55989e-015 2.38542e-015
lhumerus -46.1168 -27.5409 101.598
lradius 106.412
lwrist 17.4057
lhand -24.8202 -5.5103
lfingers 7.12502
lthumb 1.68527 24.4628
rfemur 0.15437 22.9383 26.8313
rtibia 2.92553
rfoot -11.476 -21.0787
rtoes 0.408653
lfemur 10.9773 -41.3399 -18.4325
ltibia -4.62788
lfoot -20.9741 51.5115
ltoes 12.2085
